<svg xmlns="http://www.w3.org/2000/svg" viewBox="0 0 100 100" width="100" height="100">
  <!-- Electric green background with rounded corners -->
  <rect width="100" height="100" rx="22" fill="#C8F135"/>
  
  <!-- Logo scaled and centered from original 1422x1372 viewBox -->
  <!-- Scale factor: ~0.065 to fit in ~80px, centered in 100px square -->
  <g transform="translate(7, 5) scale(0.0608)">
    <path fill="#111111" d="
      M671.496399,1133.321899
      C659.414062,1132.527222 647.323486,1131.837158 635.252808,1130.893311
      C629.314209,1130.428955 623.375916,1129.711304 617.501953,1128.724731
      C607.769287,1127.089478 598.089111,1125.142334 588.386108,1123.330444
      C580.604980,1121.877319 572.687439,1120.930908 565.070007,1118.872925
      C550.003357,1114.802734 535.043640,1110.307007 520.146057,1105.647217
      C493.270111,1097.240845 467.873077,1085.470825 443.325165,1071.708740
      C405.704468,1050.617554 372.272522,1024.409058 343.533295,992.155762
      C325.121094,971.492249 308.864746,949.253174 295.819977,924.957764
      C286.152222,906.951904 278.083740,888.033081 270.190308,869.149963
      C265.772705,858.581970 262.837830,847.346069 259.837250,836.248291
      C257.220062,826.568481 255.316574,816.686523 253.338104,806.845642
      C251.354568,796.979675 249.183823,787.112854 247.971695,777.139893
      C246.371765,763.976074 245.484253,750.718567 244.542252,737.483459
      C242.552811,709.532104 243.429291,681.566650 246.364136,653.776550
      C248.322220,635.235535 251.979630,616.831116 255.701492,598.533386
      C258.454010,585.001160 261.614044,571.409668 266.251831,558.437866
      C272.491760,540.984924 279.766449,523.840515 287.611725,507.037445
      C299.271820,482.063751 314.503174,459.197754 331.847687,437.809387
      C348.177795,417.671814 366.119293,399.025970 386.656708,383.133698
      C399.679199,373.056580 412.728302,362.768280 426.860321,354.430267
      C446.199249,343.020142 466.226837,332.609039 486.628082,323.223480
      C501.573517,316.347809 517.535522,311.637085 533.160278,306.300812
      C541.538391,303.439484 550.125183,301.160370 558.685364,298.870880
      C565.045715,297.169708 571.473938,295.655792 577.945068,294.451599
      C586.870850,292.790649 595.849731,291.392792 604.834290,290.075745
      C618.110046,288.129578 631.365784,285.861725 644.713257,284.640717
      C658.604431,283.370056 672.600647,282.521698 686.539978,282.652527
      C717.146851,282.939789 747.750305,283.848938 778.346985,284.772827
      C784.957642,284.972443 791.560425,286.135345 798.120361,287.153870
      C808.414124,288.752136 818.691833,290.478851 828.932922,292.384674
      C839.617615,294.373047 850.344482,296.262024 860.880310,298.887024
      C871.551147,301.545715 882.113525,304.747559 892.537598,308.262390
      C906.153625,312.853394 920.021606,317.054321 932.995728,323.106720
      C951.802307,331.879883 970.023865,341.943451 988.258118,351.890869
      C996.960999,356.638611 1003.586487,359.976929 1014.106445,352.699677
      C1041.326050,333.870453 1069.786011,316.777832 1098.234131,299.802032
      C1115.923584,289.246216 1134.316040,279.812805 1152.734741,270.555511
      C1163.833252,264.977356 1175.587158,260.703461 1187.860352,255.498352
      C1177.673584,247.605927 1168.045654,239.525406 1157.790527,232.340179
      C1140.547363,220.258774 1123.368286,207.970413 1105.307251,197.202988
      C1085.456299,185.368347 1064.867188,174.696182 1044.163574,164.393936
      C1030.233521,157.462311 1015.689331,151.682404 1001.154480,146.075241
      C989.041748,141.402481 976.566162,137.658752 964.207458,133.638428
      C954.147278,130.365799 944.104309,126.990173 933.901550,124.220810
      C924.613831,121.699844 915.141174,119.838654 905.714172,117.857414
      C892.907837,115.165970 880.077148,112.586792 867.236206,110.064804
      C862.552307,109.144882 857.799744,108.580414 853.095276,107.758003
      C846.624634,106.626846 840.204956,105.135902 833.699646,104.289291
      C825.490906,103.221001 817.224731,102.564651 808.971191,101.876472
      C793.081604,100.551605 777.195618,98.462837 761.286499,98.240372
      C725.484192,97.739746 689.666992,98.000359 653.859619,98.345169
      C641.240295,98.466698 628.609192,99.474342 616.026611,100.571877
      C607.322083,101.331131 598.700500,103.006332 590.025574,104.148834
      C579.062378,105.592720 568.073669,106.844925 557.114624,108.318207
      C553.051453,108.864441 549.021240,109.711655 545.010620,110.581024
      C536.867737,112.346123 528.760925,114.277588 520.615662,116.031250
      C513.594360,117.542931 506.468231,118.620979 499.519409,120.401764
      C490.868347,122.618797 482.348572,125.349579 473.777954,127.878357
      C462.087555,131.327621 450.248810,134.355209 438.755798,138.370956
      C425.427582,143.027924 412.169037,148.035782 399.303528,153.831039
      C378.490173,163.206360 357.774780,172.866348 337.470917,183.288498
      C311.721771,196.505768 287.575409,212.393448 264.266083,229.575638
      C242.469772,245.642532 221.819733,263.062622 202.575562,282.060547
      C177.239380,307.072540 153.897232,333.878571 134.472580,363.800385
      C122.723473,381.898743 111.115479,400.180481 100.932365,419.177582
      C90.919220,437.857574 82.432091,457.391632 73.975815,476.855225
      C69.650154,486.811523 66.771469,497.405823 63.401646,507.764771
      C61.130245,514.747131 59.048470,521.795349 57.053162,528.862488
      C54.484848,537.959106 51.834412,547.045227 49.695614,556.246521
      C47.916241,563.901550 46.883305,571.727539 45.413719,579.457703
      C43.576538,589.121338 41.285240,598.712341 39.823154,608.429993
      C38.152462,619.533936 36.829407,630.716553 35.987816,641.912476
      C34.905682,656.308411 33.778015,670.755920 33.870377,685.173523
      C34.056725,714.263000 34.925461,743.351196 35.803188,772.431152
      C36.032475,780.027771 37.087616,787.627747 38.194420,795.162842
      C39.797150,806.074280 41.794128,816.927673 43.619171,827.806458
      C45.031326,836.223938 46.003788,844.744263 47.950279,853.036133
      C50.742222,864.929626 54.024887,876.721375 57.500443,888.437256
      C61.189922,900.874268 64.729515,913.414062 69.443169,925.475769
      C77.331268,945.660400 85.396843,965.834167 94.672256,985.403687
      C106.776085,1010.940735 121.064964,1035.363403 138.269775,1057.860840
      C152.600830,1076.600586 166.838333,1095.514160 182.532196,1113.087158
      C211.447174,1145.464111 244.442535,1173.381226 280.225647,1198.007568
      C307.802551,1216.986328 336.614563,1233.815674 366.898254,1248.041992
      C382.918365,1255.567627 399.171692,1262.636841 415.558899,1269.326172
      C425.597870,1273.424194 436.090332,1276.411133 446.378571,1279.898682
      C453.604248,1282.348145 460.757660,1285.043823 468.072998,1287.186890
      C476.355133,1289.613037 484.771973,1291.585571 493.149506,1293.677856
      C499.324097,1295.220093 505.533264,1296.623535 511.720459,1298.115845
      C519.193237,1299.918213 526.600952,1302.054443 534.142761,1303.489990
      C543.344727,1305.241577 552.665405,1306.361816 561.919189,1307.852051
      C573.142273,1309.659424 584.307007,1311.895142 595.574280,1313.344971
      C608.042603,1314.949463 620.580566,1316.118652 633.120605,1317.032227
      C647.691284,1318.093994 662.299255,1319.359619 676.887329,1319.315796
      C705.823486,1319.229004 734.761169,1318.451172 763.690063,1317.661377
      C777.288696,1317.290161 790.879028,1316.380737 804.452393,1315.420776
      C811.536011,1314.919678 818.589111,1313.885132 825.629333,1312.900513
      C832.806641,1311.896606 839.940247,1310.582031 847.113647,1309.546997
      C852.992676,1308.698608 858.969116,1308.401001 864.783997,1307.257568
      C876.517090,1304.950928 888.166565,1302.220215 899.856689,1299.692749
      C909.597900,1297.586548 919.464355,1295.948608 929.065186,1293.332275
      C941.643372,1289.904419 954.069031,1285.883301 966.460938,1281.814697
      C980.487244,1277.209351 994.758423,1273.096069 1008.288208,1267.289429
      C1031.317749,1257.405640 1054.174194,1247.001587 1076.512817,1235.653809
      C1106.261353,1220.541748 1134.223511,1202.313721 1160.721802,1182.076538
      C1185.281982,1163.319458 1208.707642,1143.107788 1229.417236,1120.054077
      C1243.464355,1104.417236 1257.665649,1088.817871 1270.435425,1072.157227
      C1291.759155,1044.336426 1310.372803,1014.649353 1325.414551,982.919617
      C1333.500122,965.863098 1341.244751,948.579041 1347.893555,930.927002
      C1353.648682,915.648071 1357.966431,899.794861 1362.311646,884.027832
      C1366.068115,870.396362 1369.006714,856.537964 1372.226807,842.761169
      C1373.161011,838.764771 1373.812744,834.702698 1374.606201,830.673096
      C1375.749756,824.865356 1377.147949,819.094910 1377.992310,813.244202
      C1379.031738,806.041443 1379.587402,798.769592 1380.399048,791.532898
      C1381.616577,780.675842 1383.398926,769.851562 1383.985474,758.961914
      C1384.737427,744.996826 1384.953979,730.972229 1384.663208,716.988525
      C1384.158447,692.729004 1383.195557,668.476807 1382.197388,644.230896
      C1381.823242,635.142639 1380.946411,626.067383 1380.045532,617.011414
      C1379.508545,611.614929 1378.591675,606.247498 1377.641113,600.903320
      C1376.608521,595.098206 1375.249268,589.351562 1374.194092,583.549988
      C1372.700195,575.336243 1371.706665,567.015198 1369.853516,558.887268
      C1367.680298,549.355347 1364.893311,539.959045 1362.229370,530.544556
      C1358.937744,518.912781 1355.498901,507.322754 1352.123657,495.714691
      C1351.646240,495.590363 1351.168945,495.466034 1350.691528,495.341705
      C1350.038452,496.292938 1349.478760,497.327057 1348.718628,498.183319
      C1333.436279,515.400635 1318.675903,533.123718 1302.697876,549.670715
      C1280.695068,572.457092 1258.002808,594.595398 1235.162964,616.550537
      C1216.874878,634.130310 1197.944580,651.042969 1179.253174,668.201538
      C1176.149536,671.050720 1173.830200,673.709106 1173.917480,678.606384
      C1174.257812,697.697083 1174.051147,716.798584 1173.946411,735.895447
      C1173.916382,741.381287 1173.893921,746.905945 1173.260132,752.341919
      C1171.728149,765.481873 1169.943481,778.595276 1168.055420,791.689697
      C1166.785034,800.499878 1165.721436,809.398743 1163.570557,818.009460
      C1160.242676,831.332703 1156.546997,844.607971 1152.119141,857.600952
      C1147.165894,872.136108 1142.023926,886.707336 1135.548462,900.603149
      C1120.712402,932.439636 1101.738892,961.758423 1078.706421,988.345093
      C1051.451172,1019.806396 1019.764038,1046.078491 984.075439,1067.382324
      C946.051636,1090.080322 905.192200,1106.158569 862.318970,1116.978394
      C848.477478,1120.471558 834.301636,1122.688965 820.224731,1125.185791
      C808.057434,1127.343994 795.872925,1129.729614 783.589844,1130.835815
      C764.731079,1132.534302 745.793152,1133.769775 726.866638,1134.180298
      C708.755981,1134.573242 690.617004,1133.662476 671.496399,1133.321899z
    "/>
  </g>
</svg>
