<svg version="1.1" id="Layer_1" xmlns="http://www.w3.org/2000/svg" xmlns:xlink="http://www.w3.org/1999/xlink" x="0px" y="0px"
	 width="100%" viewBox="0 0 1152 520" enable-background="new 0 0 1152 520" xml:space="preserve">
<path fill="#FEFEFE" opacity="1.000000" stroke="none" 
	d="
M717.000000,521.000000 
	C478.000031,521.000000 239.500061,521.000000 1.000064,521.000000 
	C1.000043,347.666718 1.000043,174.333435 1.000021,1.000111 
	C384.999908,1.000074 768.999817,1.000074 1152.999756,1.000037 
	C1152.999878,174.333206 1152.999878,347.666412 1153.000000,520.999817 
	C1007.833313,521.000000 862.666687,521.000000 717.000000,521.000000 
M38.885067,255.935684 
	C38.934330,263.619965 38.983597,271.304230 38.833485,279.732025 
	C38.907551,280.491058 38.981617,281.250122 38.938015,282.860962 
	C40.709629,305.868744 45.125935,328.274475 54.499050,349.490784 
	C77.016212,400.459045 115.775047,433.941650 167.332199,453.200562 
	C207.678665,468.271729 249.520905,471.362457 292.133362,467.452423 
	C323.418488,464.581757 353.301300,456.843048 381.177734,442.180450 
	C429.300720,416.868469 462.108093,378.737793 477.160828,326.092377 
	C484.844971,299.217834 486.501312,271.762268 483.847565,244.013947 
	C482.316772,228.007675 479.207153,212.329361 474.182343,198.268326 
	C455.654816,216.348404 437.028076,234.636749 418.218994,252.735580 
	C415.928925,254.939163 415.259613,256.974365 415.205200,260.034485 
	C415.028107,269.996338 415.112732,280.043243 413.825409,289.891266 
	C407.698883,336.758087 383.355957,370.873535 340.900360,391.789276 
	C318.586182,402.782410 294.545898,406.603424 269.071136,407.750214 
	C263.721436,407.811798 258.371765,407.873383 252.166122,407.751038 
	C235.835373,406.948395 219.705292,404.824158 204.045700,399.961090 
	C169.279419,389.164459 141.615829,369.283356 124.146988,336.683014 
	C109.322739,309.018066 105.644135,279.267609 109.101601,248.550949 
	C115.595833,190.855148 147.161682,153.214615 201.942825,134.979568 
	C227.402588,126.504738 253.717194,124.979752 280.358246,127.038780 
	C307.138824,129.108612 332.423431,135.874054 355.292145,150.323898 
	C357.927490,151.989090 359.462433,151.603256 361.796814,150.091690 
	C371.695801,143.681763 381.563110,137.189865 391.775482,131.306824 
	C400.582458,126.233414 409.840668,121.943336 419.048340,117.230698 
	C404.930756,105.248940 389.367310,95.520584 372.574646,87.694427 
	C342.288605,73.579735 310.243103,67.042717 277.046051,65.561218 
	C237.744293,63.807285 199.118896,67.628990 162.514938,82.837387 
	C87.237099,114.114197 45.230484,170.077332 38.838844,252.728729 
	C38.903969,253.489059 38.969090,254.249405 38.885067,255.935684 
M831.713623,346.302551 
	C833.135132,346.178070 834.556702,346.053558 836.827515,346.074402 
	C854.254272,344.302582 871.089905,340.281708 886.710632,332.170654 
	C891.709778,329.574829 896.243713,326.083038 901.215332,322.087280 
	C901.133057,313.338562 901.050842,304.589844 900.948547,293.982971 
	C900.403320,293.689056 899.858032,293.395111 899.340454,293.136658 
	C899.340454,293.136658 899.312500,293.071228 898.795227,292.514618 
	C875.872803,304.984467 851.417419,310.735199 825.349670,308.728821 
	C809.287781,307.492523 794.614868,302.753326 784.218628,289.384308 
	C781.991760,286.520691 780.480225,283.100800 778.289612,279.336487 
	C808.510620,279.336487 837.504639,279.336609 866.498596,279.336395 
	C878.163940,279.336304 889.829407,279.299316 901.494385,279.364441 
	C903.931641,279.378052 905.989929,279.369263 905.227173,275.207581 
	C905.142273,274.137024 905.057373,273.066498 905.064758,271.109711 
	C904.064270,263.872589 903.654358,256.494080 901.961548,249.422729 
	C894.511841,218.303787 877.059143,195.551056 845.522034,186.169571 
	C824.976013,180.057663 804.058411,181.146255 783.520142,187.118713 
	C738.049988,200.341324 714.241638,243.646912 727.813599,288.624512 
	C738.448608,323.868866 773.975586,343.639832 808.813843,346.116577 
	C809.860352,346.108734 810.906860,346.100922 812.710144,346.417175 
	C818.825806,346.319336 824.941467,346.221497 831.713623,346.302551 
M705.205872,275.185150 
	C705.140930,267.789062 705.076050,260.392975 705.203369,252.330963 
	C705.110168,251.884430 705.017029,251.437881 704.973816,250.171677 
	C701.886658,228.537018 692.766785,210.271088 675.083618,196.826675 
	C646.794739,175.318771 595.290100,175.393906 566.671936,212.108566 
	C565.023682,214.223114 562.963074,216.016159 561.243896,217.037033 
	C561.170959,208.027100 561.097961,199.017151 561.191650,189.173981 
	C560.127075,188.447205 559.062561,187.720413 557.084290,186.769638 
	C542.723511,186.843918 528.362732,186.918198 513.272949,186.830566 
	C512.545166,187.216080 511.817413,187.601608 510.905121,188.910065 
	C510.899841,252.788605 510.893494,316.667145 510.897614,380.545685 
	C510.897705,381.704041 511.023163,382.862396 510.957153,384.924530 
	C511.847992,385.706207 512.732483,387.160767 513.630676,387.169220 
	C528.568298,387.310089 543.507935,387.218262 558.446228,387.317139 
	C561.143250,387.335022 561.558960,386.179749 561.256226,383.079712 
	C561.266907,358.764709 561.277588,334.449707 561.856079,310.429688 
	C562.394226,311.046753 562.986023,311.625153 563.462830,312.286407 
	C584.282043,341.156067 612.576416,351.424377 646.981812,344.833832 
	C678.426025,338.810516 701.124695,312.108124 705.171875,277.355377 
	C705.118652,276.904938 705.065430,276.454498 705.205872,275.185150 
M752.651489,383.918762 
	C752.640503,402.337006 752.591980,420.755341 752.631775,439.173462 
	C752.657593,451.108521 752.812622,463.043304 752.703247,475.803192 
	C753.793274,476.498779 754.883301,477.194366 756.871582,478.066132 
	C759.918030,478.007904 762.964417,477.949707 766.651794,477.890778 
	C766.622314,477.376129 766.592834,476.861481 767.008240,475.708282 
	C766.975403,462.802795 766.942566,449.897278 767.081055,436.629211 
	C767.081055,436.629211 767.108704,436.229187 768.027710,436.131622 
	C780.292725,436.160339 792.557800,436.189056 804.935242,436.066620 
	C804.935242,436.066620 804.783630,436.178436 804.813721,437.092163 
	C804.893616,450.397308 804.973511,463.702454 805.142883,477.727753 
	C806.085815,477.785126 807.028687,477.842499 808.851562,478.079803 
	C811.241577,478.019623 813.631592,477.959473 816.643494,478.032654 
	C817.432312,477.679230 818.221130,477.325806 819.226807,476.195374 
	C819.238220,463.400330 819.286621,450.605194 819.252258,437.810272 
	C819.203247,419.540588 819.093750,401.271027 819.061157,382.148743 
	C814.469360,381.958069 809.877686,381.761597 805.284058,381.635864 
	C805.219788,381.634094 805.131104,382.520660 804.854431,383.912262 
	C804.900330,396.607819 804.946167,409.303345 804.769714,422.258759 
	C804.769714,422.258759 804.797791,422.599609 804.182129,422.631592 
	C803.790405,422.747986 803.398621,422.864380 802.081543,422.814484 
	C793.595581,422.808990 785.108643,422.874146 776.624084,422.761963 
	C773.396484,422.719269 770.174316,422.269287 767.067566,421.073456 
	C767.009949,409.042694 766.952332,397.011963 767.037964,384.138977 
	C766.321045,383.194611 765.665039,381.498566 764.876770,381.434662 
	C761.276794,381.142944 757.637878,381.257538 754.018555,381.385498 
	C753.627441,381.399384 753.272827,382.444794 752.651489,383.918762 
M687.945129,432.814667 
	C688.000549,434.217804 688.056030,435.620911 687.966919,437.880188 
	C687.529968,440.401764 688.756897,440.908875 691.054077,440.852600 
	C697.009094,440.706543 702.970093,440.803497 709.099976,440.803497 
	C709.003296,442.814850 709.012268,444.299652 708.848755,445.765228 
	C707.545959,457.442108 700.119507,465.715363 690.126221,466.669128 
	C680.842468,467.555237 672.714539,461.344879 669.132629,450.192200 
	C665.816711,439.867676 665.268555,429.183350 667.091797,418.584045 
	C668.116943,412.624725 669.636108,406.380157 672.574036,401.193909 
	C679.617249,388.761047 695.772888,388.931732 703.198059,401.125214 
	C705.145630,404.323456 706.382812,407.954254 708.029602,411.569458 
	C712.641663,411.288757 717.331299,411.003326 722.310608,410.700256 
	C721.999573,409.340790 721.856567,408.533936 721.627625,407.752228 
	C721.114502,406.000427 720.678101,404.213226 720.001160,402.524353 
	C715.057373,390.190247 707.099792,381.059052 693.244507,379.115112 
	C680.647522,377.347656 669.776245,380.897522 661.895874,391.395569 
	C654.958679,400.637024 652.396118,411.393738 651.822205,422.698578 
	C651.062134,437.671875 652.071777,452.279602 660.417053,465.494995 
	C671.680908,483.332001 699.611755,485.503662 709.068970,468.147675 
	C709.207458,467.893494 709.818542,467.896851 710.591553,467.665619 
	C710.773621,471.165314 710.941223,474.388458 711.107605,477.586975 
	C715.077332,477.586975 718.509033,477.586975 721.946899,477.586975 
	C721.946899,461.176544 721.946899,444.951508 721.946899,428.646820 
	C711.427368,428.646820 701.261047,428.733368 691.097900,428.589081 
	C688.382507,428.550537 687.394104,429.341766 687.945129,432.814667 
M1110.193115,242.421738 
	C1110.193115,242.421738 1110.159790,242.358643 1110.904541,242.227859 
	C1108.960693,225.175217 1102.792847,210.126205 1089.725586,198.506027 
	C1077.360474,187.510223 1062.483521,183.304382 1046.255249,182.543625 
	C1022.451233,181.427750 1002.598877,189.319092 987.251648,207.762329 
	C984.257568,211.360397 981.678223,215.303635 978.497192,219.648148 
	C976.714050,209.126556 974.990234,199.387604 973.462158,189.618011 
	C973.103455,187.324936 972.391724,186.245834 969.085205,186.779617 
	C954.723450,186.853180 940.361755,186.926743 925.152344,186.832458 
	C924.466125,187.876373 923.070251,189.027206 923.208862,189.946838 
	C924.098572,195.851288 925.321533,201.705627 926.440857,207.575333 
	C929.890930,225.668442 933.286560,243.662933 932.785156,262.330505 
	C932.075500,288.747131 932.605225,315.196991 932.605225,341.783569 
	C933.429565,341.920990 934.058472,342.116638 934.687622,342.117401 
	C949.833557,342.135529 964.979614,342.152313 980.125305,342.086090 
	C981.047668,342.082062 981.966980,341.389832 983.039124,340.499603 
	C982.988159,340.326996 982.937256,340.154388 983.067505,339.062286 
	C983.104370,313.917206 982.436584,288.746521 983.348877,263.633240 
	C984.609497,228.934982 1014.925171,217.665207 1040.147583,226.511810 
	C1054.401855,231.511383 1060.415283,243.423904 1060.727173,257.732361 
	C1061.304199,284.194885 1061.081787,310.674805 1061.190918,337.147491 
	C1061.197510,338.752045 1061.191772,340.356659 1061.191772,341.943756 
	C1078.225098,341.943756 1094.822754,341.943756 1111.520630,341.943756 
	C1111.617676,341.314362 1111.749756,340.856323 1111.750000,340.398193 
	C1111.761841,310.922882 1111.808594,281.447357 1111.699219,251.972488 
	C1111.687378,248.784683 1110.764282,245.600281 1110.193115,242.421738 
M887.858704,392.310120 
	C898.199585,394.495636 901.599915,402.806702 904.468262,411.592468 
	C909.404602,411.287109 914.096558,410.996887 919.321838,410.673645 
	C917.949341,406.622864 917.075134,403.052948 915.568909,399.773315 
	C909.879456,387.384796 900.816895,379.513519 886.589294,378.815887 
	C871.337891,378.068115 860.302551,384.890533 854.562195,398.638977 
	C851.301819,406.447815 849.484070,415.159027 848.673462,423.622559 
	C847.362122,437.315033 848.962830,450.796478 855.767822,463.275696 
	C866.883362,483.659729 896.660950,486.071472 906.264893,467.454742 
	C906.327820,467.332947 906.833679,467.439667 907.265747,467.439667 
	C907.525024,470.833252 907.785889,474.247589 908.040649,477.581360 
	C911.845032,477.581360 915.286072,477.581360 918.922974,477.581360 
	C918.922974,461.285553 918.922974,445.182281 918.922974,428.896851 
	C907.605835,428.896851 896.370911,428.896851 885.050659,428.896851 
	C885.050659,432.927338 885.050659,436.706207 885.050659,441.015198 
	C892.094727,441.015198 898.972778,441.015198 906.544983,441.015198 
	C905.588074,445.211487 905.090942,448.852020 903.916626,452.259125 
	C900.749329,461.448853 894.098450,466.545624 885.638489,466.689301 
	C877.557556,466.826508 870.400879,462.058075 867.120239,453.219543 
	C861.171753,437.193298 861.304932,420.903778 867.215881,404.918457 
	C870.617065,395.720642 877.268372,391.917419 887.858704,392.310120 
M900.350647,293.269287 
	C900.517151,292.762848 900.683655,292.256409 900.850220,291.749969 
	C900.585022,291.685730 900.128357,291.506439 900.086426,291.576324 
	C899.857849,291.956879 899.731323,292.398773 900.350647,293.269287 
z"/>
<path fill="#020202" opacity="1.000000" stroke="none" 
	d="
M269.986084,407.949005 
	C294.545898,406.603424 318.586182,402.782410 340.900360,391.789276 
	C383.355957,370.873535 407.698883,336.758087 413.825409,289.891266 
	C415.112732,280.043243 415.028107,269.996338 415.205200,260.034485 
	C415.259613,256.974365 415.928925,254.939163 418.218994,252.735580 
	C437.028076,234.636749 455.654816,216.348404 474.182343,198.268326 
	C479.207153,212.329361 482.316772,228.007675 483.847565,244.013947 
	C486.501312,271.762268 484.844971,299.217834 477.160828,326.092377 
	C462.108093,378.737793 429.300720,416.868469 381.177734,442.180450 
	C353.301300,456.843048 323.418488,464.581757 292.133362,467.452423 
	C249.520905,471.362457 207.678665,468.271729 167.332199,453.200562 
	C115.775047,433.941650 77.016212,400.459045 54.499050,349.490784 
	C45.125935,328.274475 40.709629,305.868744 39.387154,282.326904 
	C40.200718,281.290741 40.878101,280.791656 40.882977,280.286041 
	C40.966251,271.657501 41.017765,263.027435 40.900333,254.400101 
	C40.889290,253.588745 39.698540,252.793457 39.055511,251.990707 
	C45.230484,170.077332 87.237099,114.114197 162.514938,82.837387 
	C199.118896,67.628990 237.744293,63.807285 277.046051,65.561218 
	C310.243103,67.042717 342.288605,73.579735 372.574646,87.694427 
	C389.367310,95.520584 404.930756,105.248940 419.048340,117.230698 
	C409.840668,121.943336 400.582458,126.233414 391.775482,131.306824 
	C381.563110,137.189865 371.695801,143.681763 361.796814,150.091690 
	C359.462433,151.603256 357.927490,151.989090 355.292145,150.323898 
	C332.423431,135.874054 307.138824,129.108612 280.358246,127.038780 
	C253.717194,124.979752 227.402588,126.504738 201.942825,134.979568 
	C147.161682,153.214615 115.595833,190.855148 109.101601,248.550949 
	C105.644135,279.267609 109.322739,309.018066 124.146988,336.683014 
	C141.615829,369.283356 169.279419,389.164459 204.045700,399.961090 
	C219.705292,404.824158 235.835373,406.948395 252.327026,408.150970 
	C249.723450,408.812225 246.958939,409.073517 244.194443,409.334839 
	C244.210602,409.481232 244.226761,409.627625 244.242920,409.774017 
	C256.144836,409.774017 268.046753,409.774017 281.386566,409.774017 
	C276.625580,409.011871 273.305847,408.480438 269.986084,407.949005 
M258.534485,124.000183 
	C255.084290,124.000183 251.634094,124.000183 248.183899,124.000183 
	C248.190811,124.227516 248.197739,124.454842 248.204651,124.682175 
	C257.400970,124.682175 266.597321,124.682175 275.793640,124.682175 
	C275.793884,124.454880 275.794128,124.227585 275.794373,124.000290 
	C270.370209,124.000290 264.946075,124.000290 258.534485,124.000183 
z"/>
<path fill="#010101" opacity="1.000000" stroke="none" 
	d="
M704.943970,278.006500 
	C701.124695,312.108124 678.426025,338.810516 646.981812,344.833832 
	C612.576416,351.424377 584.282043,341.156067 563.462830,312.286407 
	C562.986023,311.625153 562.394226,311.046753 561.156433,310.328308 
	C559.972046,311.991791 559.073364,313.754761 559.065430,315.521759 
	C558.968506,337.181793 558.936707,358.842834 559.068542,380.502502 
	C559.089661,383.966858 558.072083,385.124115 554.546936,385.066986 
	C542.886658,384.878174 531.221436,384.997833 519.558105,384.995667 
	C513.004211,384.994446 512.998596,384.991394 512.998413,378.609863 
	C512.996948,317.627289 512.997559,256.644714 512.997681,195.662155 
	C512.997681,194.662445 513.083618,193.654343 512.984802,192.664612 
	C512.698669,189.799759 514.024719,188.927811 516.779114,188.948380 
	C529.608032,189.044296 542.438599,189.046768 555.267456,188.946930 
	C558.068970,188.925110 559.098206,189.891998 559.044312,192.709503 
	C558.910400,199.704910 558.886780,206.708099 559.097473,213.699768 
	C559.140808,215.138214 560.397156,216.540100 561.094360,217.958832 
	C562.963074,216.016159 565.023682,214.223114 566.671936,212.108566 
	C595.290100,175.393906 646.794739,175.318771 675.083618,196.826675 
	C692.766785,210.271088 701.886658,228.537018 704.558960,250.685974 
	C703.782104,251.709106 703.110352,252.214386 703.104492,252.727264 
	C703.017517,260.352203 702.960083,267.979126 703.084412,275.602478 
	C703.097656,276.413727 704.295593,277.205627 704.943970,278.006500 
M588.156311,228.623703 
	C581.929565,234.283737 574.312195,239.005478 569.739990,245.781891 
	C556.669250,265.153870 557.219666,263.506989 569.270020,283.159332 
	C570.047485,284.427277 571.067078,285.555176 572.034607,286.696899 
	C581.875488,298.309540 594.051086,305.689636 609.362915,307.637024 
	C633.323792,310.684479 653.815613,292.101349 654.758972,266.325684 
	C655.601379,243.308960 641.357300,224.850006 619.896240,221.634827 
	C608.812317,219.974258 598.450989,222.768661 588.156311,228.623703 
z"/>
<path fill="#020202" opacity="1.000000" stroke="none" 
	d="
M808.393555,345.924896 
	C773.975586,343.639832 738.448608,323.868866 727.813599,288.624512 
	C714.241638,243.646912 738.049988,200.341324 783.520142,187.118713 
	C804.058411,181.146255 824.976013,180.057663 845.522034,186.169571 
	C877.059143,195.551056 894.511841,218.303787 901.961548,249.422729 
	C903.654358,256.494080 904.064270,263.872589 904.644653,271.644806 
	C903.481201,273.711700 902.737854,275.243500 901.803589,277.168823 
	C861.327209,277.168823 820.726074,277.168823 780.124939,277.168823 
	C780.577026,277.794159 781.045715,277.978394 781.514526,277.978577 
	C821.105713,277.993652 860.697021,278.017517 900.287903,277.911560 
	C901.868896,277.907318 903.446655,276.660675 905.025879,275.992920 
	C905.989929,279.369263 903.931641,279.378052 901.494385,279.364441 
	C889.829407,279.299316 878.163940,279.336304 866.498596,279.336395 
	C837.504639,279.336609 808.510620,279.336487 778.289612,279.336487 
	C780.480225,283.100800 781.991760,286.520691 784.218628,289.384308 
	C794.614868,302.753326 809.287781,307.492523 825.349670,308.728821 
	C851.417419,310.735199 875.872803,304.984467 898.937439,293.110046 
	C899.112183,293.819946 899.144714,293.934418 899.177246,294.048889 
	C899.222412,293.732971 899.267639,293.417084 899.312805,293.101166 
	C899.858032,293.395111 900.403320,293.689056 900.437439,294.813904 
	C899.656311,304.311523 899.358215,312.977722 899.197693,321.646423 
	C899.189575,322.086792 900.365784,322.549072 900.990540,323.001160 
	C896.243713,326.083038 891.709778,329.574829 886.710632,332.170654 
	C871.089905,340.281708 854.254272,344.302582 836.584595,345.602966 
	C836.021545,344.804077 835.704163,344.193726 835.380798,344.190552 
	C826.653992,344.104309 817.926331,344.063263 809.199646,344.124878 
	C808.926758,344.126770 808.662048,345.298523 808.393555,345.924896 
M796.856201,223.266403 
	C786.916992,228.551590 780.018616,236.274811 776.939575,247.362320 
	C803.921448,247.362320 830.390564,247.362320 857.853821,247.362320 
	C855.678284,243.029037 854.182495,239.158127 851.956299,235.766647 
	C841.092468,219.216278 817.952759,213.879364 796.856201,223.266403 
M854.612061,249.989685 
	C855.077026,249.865494 855.541992,249.741287 857.310547,249.268890 
	C830.006592,249.268890 804.028320,249.268890 778.049988,249.268890 
	C778.049072,249.511108 778.048096,249.753311 778.047180,249.995529 
	C803.296204,249.995529 828.545166,249.995529 854.612061,249.989685 
z"/>
<path fill="#020202" opacity="1.000000" stroke="none" 
	d="
M970.000000,186.999512 
	C972.391724,186.245834 973.103455,187.324936 973.462158,189.618011 
	C974.990234,199.387604 976.714050,209.126556 978.497192,219.648148 
	C981.678223,215.303635 984.257568,211.360397 987.251648,207.762329 
	C1002.598877,189.319092 1022.451233,181.427750 1046.255249,182.543625 
	C1062.483521,183.304382 1077.360474,187.510223 1089.725586,198.506027 
	C1102.792847,210.126205 1108.960693,225.175217 1110.251465,242.668823 
	C1109.397461,245.072510 1109.024658,247.034988 1109.021606,248.998032 
	C1108.975708,279.316956 1108.977783,309.635986 1108.503540,339.973633 
	C1093.383179,339.992279 1078.728271,339.992279 1064.073242,339.992279 
	C1078.828735,340.944336 1093.580688,340.954559 1108.332397,340.904694 
	C1108.887695,340.902832 1109.440918,340.317932 1109.995239,339.535767 
	C1109.995239,333.419891 1109.979980,327.772888 1109.997803,322.126007 
	C1110.081543,295.555420 1110.174316,268.984863 1110.263916,242.414307 
	C1110.764282,245.600281 1111.687378,248.784683 1111.699219,251.972488 
	C1111.808594,281.447357 1111.761841,310.922882 1111.750000,340.398193 
	C1111.749756,340.856323 1111.617676,341.314362 1111.520630,341.943756 
	C1094.822754,341.943756 1078.225098,341.943756 1061.191772,341.943756 
	C1061.191772,340.356659 1061.197510,338.752045 1061.190918,337.147491 
	C1061.081787,310.674805 1061.304199,284.194885 1060.727173,257.732361 
	C1060.415283,243.423904 1054.401855,231.511383 1040.147583,226.511810 
	C1014.925171,217.665207 984.609497,228.934982 983.348877,263.633240 
	C982.436584,288.746521 983.104370,313.917206 982.515503,339.523651 
	C966.406189,339.985016 950.848877,339.985016 934.839478,339.985016 
	C934.839478,306.086609 934.839478,273.142731 934.839478,240.198837 
	C934.722351,240.201492 934.605164,240.204147 934.488037,240.206818 
	C934.488037,273.708893 934.488037,307.210938 934.488037,341.017853 
	C950.937805,341.017853 966.912781,341.017853 982.887756,341.017822 
	C981.966980,341.389832 981.047668,342.082062 980.125305,342.086090 
	C964.979614,342.152313 949.833557,342.135529 934.687622,342.117401 
	C934.058472,342.116638 933.429565,341.920990 932.605225,341.783569 
	C932.605225,315.196991 932.075500,288.747131 932.785156,262.330505 
	C933.286560,243.662933 929.890930,225.668442 926.440857,207.575333 
	C925.321533,201.705627 924.098572,195.851288 923.208862,189.946838 
	C923.070251,189.027206 924.466125,187.876373 925.411621,187.184158 
	C926.201477,188.023270 926.729431,188.932968 927.262878,188.936234 
	C940.190369,189.014938 953.118835,188.947693 966.046021,189.049362 
	C967.992432,189.064682 969.933228,189.787521 972.249084,190.258865 
	C971.543213,189.235992 970.771606,188.117752 970.000000,186.999512 
z"/>
<path fill="#060606" opacity="1.000000" stroke="none" 
	d="
M688.111450,431.986053 
	C687.394104,429.341766 688.382507,428.550537 691.097900,428.589081 
	C701.261047,428.733368 711.427368,428.646820 721.946899,428.646820 
	C721.946899,444.951508 721.946899,461.176544 721.946899,477.586975 
	C718.509033,477.586975 715.077332,477.586975 711.107605,477.586975 
	C710.941223,474.388458 710.773621,471.165314 710.591553,467.665619 
	C709.818542,467.896851 709.207458,467.893494 709.068970,468.147675 
	C699.611755,485.503662 671.680908,483.332001 660.417053,465.494995 
	C652.071777,452.279602 651.062134,437.671875 651.822205,422.698578 
	C652.396118,411.393738 654.958679,400.637024 661.895874,391.395569 
	C669.776245,380.897522 680.647522,377.347656 693.244507,379.115112 
	C707.099792,381.059052 715.057373,390.190247 720.001160,402.524353 
	C720.678101,404.213226 721.114502,406.000427 721.627625,407.752228 
	C721.856567,408.533936 721.999573,409.340790 722.310608,410.700256 
	C717.331299,411.003326 712.641663,411.288757 708.029602,411.569458 
	C706.382812,407.954254 705.145630,404.323456 703.198059,401.125214 
	C695.772888,388.931732 679.617249,388.761047 672.574036,401.193909 
	C669.636108,406.380157 668.116943,412.624725 667.091797,418.584045 
	C665.268555,429.183350 665.816711,439.867676 669.132629,450.192200 
	C672.714539,461.344879 680.842468,467.555237 690.126221,466.669128 
	C700.119507,465.715363 707.545959,457.442108 708.848755,445.765228 
	C709.012268,444.299652 709.003296,442.814850 709.099976,440.803497 
	C702.970093,440.803497 697.009094,440.706543 691.054077,440.852600 
	C688.756897,440.908875 687.529968,440.401764 688.335693,437.697205 
	C695.005005,438.189362 701.305481,438.864502 707.605957,439.539612 
	C707.636536,438.961853 707.667053,438.384064 707.697632,437.806305 
	C701.985352,437.806305 696.273071,437.806305 690.011414,437.806305 
	C690.011414,435.226135 690.011414,433.121552 690.478882,431.004639 
	C696.604187,430.989471 702.262146,430.984772 707.920044,430.984192 
	C720.012207,430.982910 720.012207,430.983765 720.012207,443.305420 
	C720.012207,453.854248 720.012207,464.403046 720.012207,474.951874 
	C720.194031,474.947449 720.375793,474.943024 720.557617,474.938599 
	C720.557617,460.088104 720.557617,445.237579 720.557617,430.016235 
	C712.331177,430.016235 704.528381,429.939880 696.728577,430.059601 
	C694.163513,430.098969 691.606201,430.645874 688.946777,431.178955 
	C688.671082,431.679169 688.425537,431.875458 688.111450,431.986053 
z"/>
<path fill="#060606" opacity="1.000000" stroke="none" 
	d="
M887.451538,392.246582 
	C877.268372,391.917419 870.617065,395.720642 867.215881,404.918457 
	C861.304932,420.903778 861.171753,437.193298 867.120239,453.219543 
	C870.400879,462.058075 877.557556,466.826508 885.638489,466.689301 
	C894.098450,466.545624 900.749329,461.448853 903.916626,452.259125 
	C905.090942,448.852020 905.588074,445.211487 906.544983,441.015198 
	C898.972778,441.015198 892.094727,441.015198 885.050659,441.015198 
	C885.050659,436.706207 885.050659,432.927338 885.050659,428.896851 
	C896.370911,428.896851 907.605835,428.896851 918.922974,428.896851 
	C918.922974,445.182281 918.922974,461.285553 918.922974,477.581360 
	C915.286072,477.581360 911.845032,477.581360 908.040649,477.581360 
	C907.785889,474.247589 907.525024,470.833252 907.265747,467.439667 
	C906.833679,467.439667 906.327820,467.332947 906.264893,467.454742 
	C896.660950,486.071472 866.883362,483.659729 855.767822,463.275696 
	C848.962830,450.796478 847.362122,437.315033 848.673462,423.622559 
	C849.484070,415.159027 851.301819,406.447815 854.562195,398.638977 
	C860.302551,384.890533 871.337891,378.068115 886.589294,378.815887 
	C900.816895,379.513519 909.879456,387.384796 915.568909,399.773315 
	C917.075134,403.052948 917.949341,406.622864 919.321838,410.673645 
	C914.096558,410.996887 909.404602,411.287109 904.468262,411.592468 
	C901.599915,402.806702 898.199585,394.495636 887.451538,392.246582 
M909.421387,430.987946 
	C917.889832,431.080231 916.926086,430.027710 917.003052,438.314026 
	C917.015381,439.643494 917.004944,440.973175 917.004944,442.302765 
	C917.004944,453.203522 917.004883,464.104279 917.004883,475.005066 
	C917.206360,475.001312 917.407898,474.997589 917.609375,474.993835 
	C917.609375,460.155518 917.609375,445.317169 917.609375,430.331665 
	C907.006775,430.331665 896.791931,430.331665 886.339355,430.331665 
	C886.339355,433.042297 886.339355,435.428986 886.339355,437.815643 
	C886.491699,437.820343 886.644043,437.825043 886.796387,437.829742 
	C886.970215,435.737976 887.144104,433.646210 887.365112,430.987915 
	C894.573914,430.987915 901.508850,430.987915 909.421387,430.987946 
M850.004883,422.873352 
	C850.004883,426.207916 850.004883,429.542480 850.004883,432.877045 
	C850.232056,432.869843 850.459229,432.862610 850.686401,432.855377 
	C850.686401,428.285095 850.686401,423.714813 850.686401,419.144531 
	C850.457947,419.146515 850.229553,419.148499 850.001099,419.150482 
	C850.001099,420.105469 850.001099,421.060455 850.004883,422.873352 
M850.999695,437.671173 
	C850.899231,437.087097 850.798706,436.502991 850.698242,435.918915 
	C850.598328,435.941589 850.498352,435.964264 850.398438,435.986938 
	C850.398438,437.255554 850.398438,438.524170 850.398438,439.792755 
	C850.549500,439.780457 850.700500,439.768127 850.851562,439.755798 
	C850.902466,439.280487 850.953369,438.805206 850.999695,437.671173 
z"/>
<path fill="#010101" opacity="1.000000" stroke="none" 
	d="
M804.797791,422.599609 
	C804.797791,422.599609 804.769714,422.258759 805.279419,422.036255 
	C806.195374,420.156647 806.932861,418.503601 806.953125,416.841766 
	C807.067139,407.518250 807.220093,398.185547 806.911438,388.870850 
	C806.774353,384.736511 808.298523,383.922180 812.069397,383.852539 
	C816.092529,383.778198 817.110291,385.112427 817.087646,389.000153 
	C816.933655,415.475403 817.007507,441.951996 817.007141,468.428131 
	C817.007019,476.672882 817.005371,476.681335 808.655823,475.851624 
	C808.212463,475.807556 807.803284,475.420197 807.007935,474.994446 
	C807.007935,463.655945 807.090210,452.187744 806.909241,440.723694 
	C806.885193,439.197784 805.525085,437.692993 804.783630,436.178436 
	C804.783630,436.178436 804.935242,436.066620 804.847412,435.729553 
	C803.822754,434.929749 802.889404,434.073090 801.948486,434.064575 
	C791.359192,433.969208 780.767822,433.942719 770.180054,434.101227 
	C769.145874,434.116669 768.132019,435.487488 767.108704,436.229187 
	C767.108704,436.229187 767.081055,436.629211 766.607300,436.915771 
	C765.756531,438.885193 765.071045,440.564728 765.053223,442.251373 
	C764.949097,452.083160 764.846863,461.920258 765.078979,471.747650 
	C765.168762,475.548401 763.477844,476.177277 760.285156,476.052277 
	C757.321411,475.936188 754.886047,476.297394 754.914551,471.826263 
	C755.092285,443.995331 755.089111,416.162140 754.913696,388.331207 
	C754.886780,384.069550 756.942932,384.017914 760.122375,383.908081 
	C763.679321,383.785156 765.197205,384.641296 765.088684,388.586548 
	C764.822937,398.245483 764.919861,407.918060 765.089417,417.581329 
	C765.115479,419.066284 766.300598,420.530914 766.949646,422.004944 
	C770.174316,422.269287 773.396484,422.719269 776.624084,422.761963 
	C785.108643,422.874146 793.595581,422.808990 802.262207,423.208740 
	C791.011047,423.603027 779.579224,423.603027 768.147461,423.603027 
	C768.150452,424.066803 768.153442,424.530579 768.156433,424.994354 
	C779.412720,424.994354 790.669922,425.052917 801.923828,424.890411 
	C802.892639,424.876434 803.840332,423.397858 804.797791,422.599609 
z"/>
<path fill="#1C1C1C" opacity="1.000000" stroke="none" 
	d="
M561.169128,217.497925 
	C560.397156,216.540100 559.140808,215.138214 559.097473,213.699768 
	C558.886780,206.708099 558.910400,199.704910 559.044312,192.709503 
	C559.098206,189.891998 558.068970,188.925110 555.267456,188.946930 
	C542.438599,189.046768 529.608032,189.044296 516.779114,188.948380 
	C514.024719,188.927811 512.698669,189.799759 512.984802,192.664612 
	C513.083618,193.654343 512.997681,194.662445 512.997681,195.662155 
	C512.997559,256.644714 512.996948,317.627289 512.998413,378.609863 
	C512.998596,384.991394 513.004211,384.994446 519.558105,384.995667 
	C531.221436,384.997833 542.886658,384.878174 554.546936,385.066986 
	C558.072083,385.124115 559.089661,383.966858 559.068542,380.502502 
	C558.936707,358.842834 558.968506,337.181793 559.065430,315.521759 
	C559.073364,313.754761 559.972046,311.991791 560.872559,310.180817 
	C561.277588,334.449707 561.266907,358.764709 560.819031,383.762329 
	C558.928955,384.964355 557.479797,385.922089 556.022522,385.934723 
	C542.612122,386.050629 529.199585,386.068085 515.789856,385.915558 
	C514.216248,385.897675 512.656372,384.681458 511.090088,384.020752 
	C511.023163,382.862396 510.897705,381.704041 510.897614,380.545685 
	C510.893494,316.667145 510.899841,252.788605 511.329041,188.458878 
	C512.502625,187.669281 513.252258,187.330887 514.001953,186.992477 
	C528.362732,186.918198 542.723511,186.843918 557.701660,187.148605 
	C559.221008,188.354126 560.122986,189.180664 561.024963,190.007217 
	C561.097961,199.017151 561.170959,208.027100 561.169128,217.497925 
z"/>
<path fill="#1A1A1A" opacity="1.000000" stroke="none" 
	d="
M804.798706,436.635315 
	C805.525085,437.692993 806.885193,439.197784 806.909241,440.723694 
	C807.090210,452.187744 807.007935,463.655945 807.007935,474.994446 
	C807.803284,475.420197 808.212463,475.807556 808.655823,475.851624 
	C817.005371,476.681335 817.007019,476.672882 817.007141,468.428131 
	C817.007507,441.951996 816.933655,415.475403 817.087646,389.000153 
	C817.110291,385.112427 816.092529,383.778198 812.069397,383.852539 
	C808.298523,383.922180 806.774353,384.736511 806.911438,388.870850 
	C807.220093,398.185547 807.067139,407.518250 806.953125,416.841766 
	C806.932861,418.503601 806.195374,420.156647 805.390564,421.906311 
	C804.946167,409.303345 804.900330,396.607819 805.415344,383.459290 
	C810.320862,383.004700 814.665466,383.003082 819.010071,383.001434 
	C819.093750,401.271027 819.203247,419.540588 819.252258,437.810272 
	C819.286621,450.605194 819.238220,463.400330 818.707153,476.570526 
	C817.465515,477.263550 816.743530,477.581451 816.021606,477.899323 
	C813.631592,477.959473 811.241577,478.019623 808.209717,477.740509 
	C806.729675,477.270020 805.891541,477.138824 805.053406,477.007629 
	C804.973511,463.702454 804.893616,450.397308 804.798706,436.635315 
z"/>
<path fill="#131313" opacity="1.000000" stroke="none" 
	d="
M767.008606,421.539185 
	C766.300598,420.530914 765.115479,419.066284 765.089417,417.581329 
	C764.919861,407.918060 764.822937,398.245483 765.088684,388.586548 
	C765.197205,384.641296 763.679321,383.785156 760.122375,383.908081 
	C756.942932,384.017914 754.886780,384.069550 754.913696,388.331207 
	C755.089111,416.162140 755.092285,443.995331 754.914551,471.826263 
	C754.886047,476.297394 757.321411,475.936188 760.285156,476.052277 
	C763.477844,476.177277 765.168762,475.548401 765.078979,471.747650 
	C764.846863,461.920258 764.949097,452.083160 765.053223,442.251373 
	C765.071045,440.564728 765.756531,438.885193 766.521667,437.097076 
	C766.942566,449.897278 766.975403,462.802795 766.582642,476.392822 
	C766.108337,477.348755 766.059631,477.620117 766.010864,477.891479 
	C762.964417,477.949707 759.918030,478.007904 756.239136,477.731689 
	C754.707703,476.590942 753.808777,475.784576 752.909790,474.978210 
	C752.812622,463.043304 752.657593,451.108521 752.631775,439.173462 
	C752.591980,420.755341 752.640503,402.337006 753.244873,383.464539 
	C758.167358,383.820007 763.038757,381.037048 766.894775,384.981201 
	C766.952332,397.011963 767.009949,409.042694 767.008606,421.539185 
z"/>
<path fill="#202020" opacity="1.000000" stroke="none" 
	d="
M982.963440,340.758728 
	C966.912781,341.017853 950.937805,341.017853 934.488037,341.017853 
	C934.488037,307.210938 934.488037,273.708893 934.488037,240.206818 
	C934.605164,240.204147 934.722351,240.201492 934.839478,240.198837 
	C934.839478,273.142731 934.839478,306.086609 934.839478,339.985016 
	C950.848877,339.985016 966.406189,339.985016 982.424927,339.983398 
	C982.937256,340.154388 982.988159,340.326996 982.963440,340.758728 
z"/>
<path fill="#1D1D1D" opacity="1.000000" stroke="none" 
	d="
M905.126526,275.600250 
	C903.446655,276.660675 901.868896,277.907318 900.287903,277.911560 
	C860.697021,278.017517 821.105713,277.993652 781.514526,277.978577 
	C781.045715,277.978394 780.577026,277.794159 780.124939,277.168823 
	C820.726074,277.168823 861.327209,277.168823 901.803589,277.168823 
	C902.737854,275.243500 903.481201,273.711700 904.598511,272.087921 
	C905.057373,273.066498 905.142273,274.137024 905.126526,275.600250 
z"/>
<path fill="#121212" opacity="1.000000" stroke="none" 
	d="
M1110.228516,242.418015 
	C1110.174316,268.984863 1110.081543,295.555420 1109.997803,322.126007 
	C1109.979980,327.772888 1109.995239,333.419891 1109.738525,339.526428 
	C1109.310791,339.975708 1109.139893,339.965332 1108.968872,339.954987 
	C1108.977783,309.635986 1108.975708,279.316956 1109.021606,248.998032 
	C1109.024658,247.034988 1109.397461,245.072510 1109.879028,242.734207 
	C1110.159790,242.358643 1110.193115,242.421738 1110.228516,242.418015 
z"/>
<path fill="#181818" opacity="1.000000" stroke="none" 
	d="
M969.542603,186.889557 
	C970.771606,188.117752 971.543213,189.235992 972.249084,190.258865 
	C969.933228,189.787521 967.992432,189.064682 966.046021,189.049362 
	C953.118835,188.947693 940.190369,189.014938 927.262878,188.936234 
	C926.729431,188.932968 926.201477,188.023270 925.835449,187.268066 
	C940.361755,186.926743 954.723450,186.853180 969.542603,186.889557 
z"/>
<path fill="#1A1A1A" opacity="1.000000" stroke="none" 
	d="
M767.568237,436.180420 
	C768.132019,435.487488 769.145874,434.116669 770.180054,434.101227 
	C780.767822,433.942719 791.359192,433.969208 801.948486,434.064575 
	C802.889404,434.073090 803.822754,434.929749 804.791199,435.805145 
	C792.557800,436.189056 780.292725,436.160339 767.568237,436.180420 
z"/>
<path fill="#1A1A1A" opacity="1.000000" stroke="none" 
	d="
M269.528625,407.849609 
	C273.305847,408.480438 276.625580,409.011871 281.386566,409.774017 
	C268.046753,409.774017 256.144836,409.774017 244.242920,409.774017 
	C244.226761,409.627625 244.210602,409.481232 244.194443,409.334839 
	C246.958939,409.073517 249.723450,408.812225 252.755005,408.242920 
	C258.371765,407.873383 263.721436,407.811798 269.528625,407.849609 
z"/>
<path fill="#010101" opacity="1.000000" stroke="none" 
	d="
M511.023621,384.472656 
	C512.656372,384.681458 514.216248,385.897675 515.789856,385.915558 
	C529.199585,386.068085 542.612122,386.050629 556.022522,385.934723 
	C557.479797,385.922089 558.928955,384.964355 560.703247,384.217957 
	C561.558960,386.179749 561.143250,387.335022 558.446228,387.317139 
	C543.507935,387.218262 528.568298,387.310089 513.630676,387.169220 
	C512.732483,387.160767 511.847992,385.706207 511.023621,384.472656 
z"/>
<path fill="#181818" opacity="1.000000" stroke="none" 
	d="
M901.102905,322.544189 
	C900.365784,322.549072 899.189575,322.086792 899.197693,321.646423 
	C899.358215,312.977722 899.656311,304.311523 900.447510,295.742981 
	C901.050842,304.589844 901.133057,313.338562 901.102905,322.544189 
z"/>
<path fill="#202020" opacity="1.000000" stroke="none" 
	d="
M804.489990,422.615601 
	C803.840332,423.397858 802.892639,424.876434 801.923828,424.890411 
	C790.669922,425.052917 779.412720,424.994354 768.156433,424.994354 
	C768.153442,424.530579 768.150452,424.066803 768.147461,423.603027 
	C779.579224,423.603027 791.011047,423.603027 802.724854,423.291901 
	C803.398621,422.864380 803.790405,422.747986 804.489990,422.615601 
z"/>
<path fill="#010101" opacity="1.000000" stroke="none" 
	d="
M705.011169,252.996902 
	C705.076050,260.392975 705.140930,267.789062 704.807129,275.305023 
	C704.609375,267.948883 704.810242,260.472900 705.011169,252.996902 
z"/>
<path fill="#020202" opacity="1.000000" stroke="none" 
	d="
M831.057129,346.123657 
	C824.941467,346.221497 818.825806,346.319336 812.613647,345.938599 
	C818.697205,345.681213 824.877136,345.902435 831.057129,346.123657 
z"/>
<path fill="#131313" opacity="1.000000" stroke="none" 
	d="
M831.385376,346.213074 
	C824.877136,345.902435 818.697205,345.681213 812.235291,345.776550 
	C810.906860,346.100922 809.860352,346.108734 808.603699,346.020752 
	C808.662048,345.298523 808.926758,344.126770 809.199646,344.124878 
	C817.926331,344.063263 826.653992,344.104309 835.380798,344.190552 
	C835.704163,344.193726 836.021545,344.804077 836.159912,345.530273 
	C834.556702,346.053558 833.135132,346.178070 831.385376,346.213074 
z"/>
<path fill="#202020" opacity="1.000000" stroke="none" 
	d="
M38.947178,252.359711 
	C39.698540,252.793457 40.889290,253.588745 40.900333,254.400101 
	C41.017765,263.027435 40.966251,271.657501 40.882977,280.286041 
	C40.878101,280.791656 40.200718,281.290741 39.445988,281.901001 
	C38.981617,281.250122 38.907551,280.491058 39.231850,279.069733 
	C39.431545,270.608215 39.232880,262.808960 39.034210,255.009735 
	C38.969090,254.249405 38.903969,253.489059 38.947178,252.359711 
z"/>
<path fill="#121212" opacity="1.000000" stroke="none" 
	d="
M688.028320,432.400360 
	C688.425537,431.875458 688.671082,431.679169 689.187866,431.196350 
	C689.527527,430.995453 690.011414,431.016937 690.011414,431.016937 
	C690.011414,433.121552 690.011414,435.226135 690.011414,437.806305 
	C696.273071,437.806305 701.985352,437.806305 707.697632,437.806305 
	C707.667053,438.384064 707.636536,438.961853 707.605957,439.539612 
	C701.305481,438.864502 695.005005,438.189362 688.407959,437.269165 
	C688.056030,435.620911 688.000549,434.217804 688.028320,432.400360 
z"/>
<path fill="#181818" opacity="1.000000" stroke="none" 
	d="
M705.107300,252.663940 
	C704.810242,260.472900 704.609375,267.948883 704.710327,275.714478 
	C705.065430,276.454498 705.118652,276.904938 705.057922,277.680939 
	C704.295593,277.205627 703.097656,276.413727 703.084412,275.602478 
	C702.960083,267.979126 703.017517,260.352203 703.104492,252.727264 
	C703.110352,252.214386 703.782104,251.709106 704.534058,251.095795 
	C705.017029,251.437881 705.110168,251.884430 705.107300,252.663940 
z"/>
<path fill="#010101" opacity="1.000000" stroke="none" 
	d="
M766.966370,384.560089 
	C763.038757,381.037048 758.167358,383.820007 753.369751,383.010986 
	C753.272827,382.444794 753.627441,381.399384 754.018555,381.385498 
	C757.637878,381.257538 761.276794,381.142944 764.876770,381.434662 
	C765.665039,381.498566 766.321045,383.194611 766.966370,384.560089 
z"/>
<path fill="#010101" opacity="1.000000" stroke="none" 
	d="
M819.035645,382.575073 
	C814.665466,383.003082 810.320862,383.004700 805.515015,382.999481 
	C805.131104,382.520660 805.219788,381.634094 805.284058,381.635864 
	C809.877686,381.761597 814.469360,381.958069 819.035645,382.575073 
z"/>
<path fill="#020202" opacity="1.000000" stroke="none" 
	d="
M38.959641,255.472717 
	C39.232880,262.808960 39.431545,270.608215 39.331535,278.697968 
	C38.983597,271.304230 38.934330,263.619965 38.959641,255.472717 
z"/>
<path fill="#010101" opacity="1.000000" stroke="none" 
	d="
M561.108276,189.590607 
	C560.122986,189.180664 559.221008,188.354126 558.158508,187.260605 
	C559.062561,187.720413 560.127075,188.447205 561.108276,189.590607 
z"/>
<path fill="#010101" opacity="1.000000" stroke="none" 
	d="
M752.806519,475.390686 
	C753.808777,475.784576 754.707703,476.590942 755.790039,477.643616 
	C754.883301,477.194366 753.793274,476.498779 752.806519,475.390686 
z"/>
<path fill="#010101" opacity="1.000000" stroke="none" 
	d="
M513.637451,186.911530 
	C513.252258,187.330887 512.502625,187.669281 511.421295,187.997406 
	C511.817413,187.601608 512.545166,187.216080 513.637451,186.911530 
z"/>
<path fill="#010101" opacity="1.000000" stroke="none" 
	d="
M805.098145,477.367676 
	C805.891541,477.138824 806.729675,477.270020 807.769714,477.650574 
	C807.028687,477.842499 806.085815,477.785126 805.098145,477.367676 
z"/>
<path fill="#010101" opacity="1.000000" stroke="none" 
	d="
M816.332520,477.966003 
	C816.743530,477.581451 817.465515,477.263550 818.598755,476.959045 
	C818.221130,477.325806 817.432312,477.679230 816.332520,477.966003 
z"/>
<path fill="#020202" opacity="1.000000" stroke="none" 
	d="
M899.960205,293.044434 
	C899.731323,292.398773 899.857849,291.956879 900.086426,291.576324 
	C900.128357,291.506439 900.585022,291.685730 900.850220,291.749939 
	C900.683655,292.256409 900.517151,292.762848 899.960205,293.044434 
z"/>
<path fill="#181818" opacity="1.000000" stroke="none" 
	d="
M899.326660,293.118896 
	C899.267639,293.417084 899.222412,293.732971 899.177246,294.048889 
	C899.144714,293.934418 899.112183,293.819946 899.196045,293.388367 
	C899.312500,293.071228 899.340454,293.136658 899.326660,293.118896 
z"/>
<path fill="#010101" opacity="1.000000" stroke="none" 
	d="
M766.331299,477.891113 
	C766.059631,477.620117 766.108337,477.348755 766.360229,476.712097 
	C766.592834,476.861481 766.622314,477.376129 766.331299,477.891113 
z"/>
<path fill="#1F1F1F" opacity="1.000000" stroke="none" 
	d="
M259.028198,124.000237 
	C264.946075,124.000290 270.370209,124.000290 275.794373,124.000290 
	C275.794128,124.227585 275.793884,124.454880 275.793640,124.682175 
	C266.597321,124.682175 257.400970,124.682175 248.204651,124.682175 
	C248.197739,124.454842 248.190811,124.227516 248.183899,124.000183 
	C251.634094,124.000183 255.084290,124.000183 259.028198,124.000237 
z"/>
<path fill="#FDFDFD" opacity="1.000000" stroke="none" 
	d="
M588.450562,228.402298 
	C598.450989,222.768661 608.812317,219.974258 619.896240,221.634827 
	C641.357300,224.850006 655.601379,243.308960 654.758972,266.325684 
	C653.815613,292.101349 633.323792,310.684479 609.362915,307.637024 
	C594.051086,305.689636 581.875488,298.309540 572.034607,286.696899 
	C571.067078,285.555176 570.047485,284.427277 569.270020,283.159332 
	C557.219666,263.506989 556.669250,265.153870 569.739990,245.781891 
	C574.312195,239.005478 581.929565,234.283737 588.450562,228.402298 
z"/>
<path fill="#F8F8F8" opacity="1.000000" stroke="none" 
	d="
M797.215332,223.147766 
	C817.952759,213.879364 841.092468,219.216278 851.956299,235.766647 
	C854.182495,239.158127 855.678284,243.029037 857.853821,247.362320 
	C830.390564,247.362320 803.921448,247.362320 776.939575,247.362320 
	C780.018616,236.274811 786.916992,228.551590 797.215332,223.147766 
z"/>
<path fill="#1F1F1F" opacity="1.000000" stroke="none" 
	d="
M854.203125,249.992615 
	C828.545166,249.995529 803.296204,249.995529 778.047180,249.995529 
	C778.048096,249.753311 778.049072,249.511108 778.049988,249.268890 
	C804.028320,249.268890 830.006592,249.268890 857.310547,249.268890 
	C855.541992,249.741287 855.077026,249.865494 854.203125,249.992615 
z"/>
<path fill="#272727" opacity="1.000000" stroke="none" 
	d="
M1108.503540,339.973633 
	C1109.139893,339.965332 1109.310791,339.975708 1109.738525,339.995392 
	C1109.440918,340.317932 1108.887695,340.902832 1108.332397,340.904694 
	C1093.580688,340.954559 1078.828735,340.944336 1064.073242,339.992279 
	C1078.728271,339.992279 1093.383179,339.992279 1108.503540,339.973633 
z"/>
<path fill="#242424" opacity="1.000000" stroke="none" 
	d="
M690.478882,431.004639 
	C690.011414,431.016937 689.527527,430.995453 689.286438,430.978088 
	C691.606201,430.645874 694.163513,430.098969 696.728577,430.059601 
	C704.528381,429.939880 712.331177,430.016235 720.557617,430.016235 
	C720.557617,445.237579 720.557617,460.088104 720.557617,474.938599 
	C720.375793,474.943024 720.194031,474.947449 720.012207,474.951874 
	C720.012207,464.403046 720.012207,453.854248 720.012207,443.305420 
	C720.012207,430.983765 720.012207,430.982910 707.920044,430.984192 
	C702.262146,430.984772 696.604187,430.989471 690.478882,431.004639 
z"/>
<path fill="#222222" opacity="1.000000" stroke="none" 
	d="
M908.932556,430.987915 
	C901.508850,430.987915 894.573914,430.987915 887.365112,430.987915 
	C887.144104,433.646210 886.970215,435.737976 886.796387,437.829742 
	C886.644043,437.825043 886.491699,437.820343 886.339355,437.815643 
	C886.339355,435.428986 886.339355,433.042297 886.339355,430.331665 
	C896.791931,430.331665 907.006775,430.331665 917.609375,430.331665 
	C917.609375,445.317169 917.609375,460.155518 917.609375,474.993835 
	C917.407898,474.997589 917.206360,475.001312 917.004883,475.005066 
	C917.004883,464.104279 917.004944,453.203522 917.004944,442.302765 
	C917.004944,440.973175 917.015381,439.643494 917.003052,438.314026 
	C916.926086,430.027710 917.889832,431.080231 908.932556,430.987915 
z"/>
<path fill="#181818" opacity="1.000000" stroke="none" 
	d="
M850.002991,422.444397 
	C850.001099,421.060455 850.001099,420.105469 850.001099,419.150482 
	C850.229553,419.148499 850.457947,419.146515 850.686401,419.144531 
	C850.686401,423.714813 850.686401,428.285095 850.686401,432.855377 
	C850.459229,432.862610 850.232056,432.869843 850.004883,432.877045 
	C850.004883,429.542480 850.004883,426.207916 850.002991,422.444397 
z"/>
<path fill="#181818" opacity="1.000000" stroke="none" 
	d="
M851.001953,438.000549 
	C850.953369,438.805206 850.902466,439.280487 850.851562,439.755798 
	C850.700500,439.768127 850.549500,439.780457 850.398438,439.792755 
	C850.398438,438.524170 850.398438,437.255554 850.398438,435.986938 
	C850.498352,435.964264 850.598328,435.941589 850.698242,435.918915 
	C850.798706,436.502991 850.899231,437.087097 851.001953,438.000549 
z"/>
</svg>